<?xml version="1.0" standalone="no"?><!DOCTYPE svg PUBLIC "-//W3C//DTD SVG 1.1//EN" "http://www.w3.org/Graphics/SVG/1.1/DTD/svg11.dtd"><svg t="1528874370175" class="icon" style="" viewBox="0 0 1024 1024" version="1.1" xmlns="http://www.w3.org/2000/svg" p-id="4875" xmlns:xlink="http://www.w3.org/1999/xlink" width="200" height="200"><defs><style type="text/css"></style></defs><path d="M581.9392 55.739733c-37.853867-37.9904-104.0384-37.9904-141.858133 0L9.659733 487.1168c-10.001067 10.001067-9.966933 26.2144 0.034133 36.215467 10.001067 9.9328 26.2144 9.966933 36.215467-0.068267l45.8752-45.9776 0 340.753067c0 42.427733 21.640533 91.5456 55.159467 125.098667 33.518933 33.4848 82.6368 55.159467 125.1328 55.159467l479.880533 0c39.901867 0 76.049067-17.544533 113.698133-55.159467 36.1472-36.215467 43.7248-87.995733 43.7248-125.098667L909.380267 454.656l68.8128 68.676267c9.966933 9.9328 26.180267 9.966933 36.215467-0.068267 10.001067-10.001067 9.966933-26.2144-0.034133-36.215467L581.9392 55.739733zM629.6576 947.131733l-235.3152 0 0-266.205867c0-64.853333 52.770133-117.6576 117.6576-117.6576 64.887467 0 117.6576 52.804267 117.6576 117.6576L629.6576 947.131733zM858.146133 415.4368l0 402.6368c0 27.4432-4.983467 65.092267-28.740267 88.8832-27.409067 27.409067-52.0192 40.174933-77.482667 40.174933l-71.0656 0 0-266.205867c0-93.115733-75.741867-168.8576-168.8576-168.8576-93.115733 0-168.8576 75.776-168.8576 168.8576l0 266.205867L272.042667 947.131733c-28.706133 0-65.262933-16.520533-88.917333-40.174933-23.6544-23.6544-40.174933-60.245333-40.174933-88.8832L142.9504 425.984l333.346133-334.1312c18.500267-18.5344 50.858667-18.602667 69.4272 0.068267l314.368 313.617067C858.862933 408.610133 858.146133 411.921067 858.146133 415.4368z" p-id="4876" fill="#1296db"></path></svg>